<svg width="31" height="31" viewBox="0 0 31 31" fill="none" xmlns="http://www.w3.org/2000/svg">
<g id="cup">
<path id="Path 8" fill-rule="evenodd" clip-rule="evenodd" d="M7.53857 2.51367V13.8214C7.53857 17.9847 10.9137 21.3598 15.077 21.3598C19.2404 21.3598 22.6155 17.9847 22.6155 13.8214V2.51367H7.53857Z" fill="#E30613" stroke="#E30613" stroke-width="1.50769" stroke-linecap="round"/>
<path id="Path 42" d="M8.79492 26.3853H21.359" stroke="#E30613" stroke-width="1.50769" stroke-linecap="round"/>
<path id="Path 43" d="M15.0767 21.3594V26.385" stroke="#E30613" stroke-width="1.50769"/>
<path id="Path 8_2" fill-rule="evenodd" clip-rule="evenodd" d="M7.53857 6.28223H6.28217C4.20048 6.28223 2.51293 7.96977 2.51293 10.0515V10.0515C2.51293 12.1331 4.20048 13.8207 6.28216 13.8207H7.53857L7.53857 6.28223Z" stroke="#E30613" stroke-width="1.50769" stroke-linecap="round"/>
<path id="Path 8_3" fill-rule="evenodd" clip-rule="evenodd" d="M22.6152 13.8213H23.8716C25.9533 13.8213 27.6409 12.1337 27.6409 10.0521V10.0521C27.6409 7.97037 25.9533 6.28283 23.8716 6.28283H22.6152V13.8213Z" stroke="#E30613" stroke-width="1.50769" stroke-linecap="round"/>
</g>
</svg>
