<svg width="31" height="31" viewBox="0 0 31 31" fill="none" xmlns="http://www.w3.org/2000/svg">
<g id="cup">
<path id="Path 8" fill-rule="evenodd" clip-rule="evenodd" d="M7.53857 3.17285V14.4805C7.53857 18.6439 10.9137 22.019 15.077 22.019C19.2404 22.019 22.6155 18.6439 22.6155 14.4805V3.17285H7.53857Z" fill="#1B1C22" stroke="#1B1C22" stroke-width="1.50769" stroke-linecap="round"/>
<path id="Path 42" d="M8.79492 27.0445H21.359" stroke="#1B1C22" stroke-width="1.50769" stroke-linecap="round"/>
<path id="Path 43" d="M15.0767 22.0186V27.0442" stroke="#1B1C22" stroke-width="1.50769"/>
<path id="Path 8_2" fill-rule="evenodd" clip-rule="evenodd" d="M7.53857 6.94141H6.28217C4.20048 6.94141 2.51293 8.62895 2.51293 10.7106V10.7106C2.51293 12.7923 4.20048 14.4799 6.28216 14.4799H7.53857L7.53857 6.94141Z" stroke="#1B1C22" stroke-width="1.50769" stroke-linecap="round"/>
<path id="Path 8_3" fill-rule="evenodd" clip-rule="evenodd" d="M22.6152 14.4805H23.8716C25.9533 14.4805 27.6409 12.7929 27.6409 10.7112V10.7112C27.6409 8.62955 25.9533 6.94201 23.8716 6.94201H22.6152V14.4805Z" stroke="#1B1C22" stroke-width="1.50769" stroke-linecap="round"/>
</g>
</svg>
